<svg xmlns="http://www.w3.org/2000/svg" version="1.1" xmlns:xlink="http://www.w3.org/1999/xlink" xmlns:svgjs="http://svgjs.com/svgjs" width="256" height="256"><svg xmlns="http://www.w3.org/2000/svg" width="256" height="256" viewBox="0 0 100 100"><rect width="100" height="100" rx="20" fill="#ffd700"></rect><path fill="#9013fe" d="M34.67 30.54L34.67 31.34Q34.51 32.70 33.79 33.94Q33.07 35.18 32.11 36.26Q31.15 37.34 30.07 38.14Q28.99 38.94 28.03 39.34L28.03 39.34Q25.23 40.46 22.07 41.30Q18.91 42.14 15.87 42.70L15.87 42.70Q15.79 42.70 15.31 42.74Q14.83 42.78 14.67 42.54L14.67 42.54Q14.67 42.38 14.99 42.06Q15.31 41.74 15.47 41.74L15.47 41.74Q16.59 41.02 18.55 39.98Q20.51 38.94 21.95 38.46L21.95 38.46Q22.43 38.38 24.23 37.54Q26.03 36.70 28.07 35.54Q30.11 34.38 31.91 33.10Q33.71 31.82 34.19 30.78L34.19 30.78Q34.35 30.70 34.43 30.62Q34.51 30.54 34.67 30.54L34.67 30.54ZM34.35 28.38L34.35 28.38Q33.07 31.10 30.83 32.70Q28.59 34.30 25.83 35.42Q23.07 36.54 20.07 37.42Q17.07 38.30 14.35 39.58L14.35 39.58Q10.99 41.18 7.99 44.10Q4.99 47.02 3.87 51.26L3.87 51.26Q3.71 51.34 3.59 51.50Q3.47 51.66 3.31 51.82L3.31 51.82Q3.39 48.94 4.35 46.58Q5.31 44.22 6.79 42.38Q8.27 40.54 10.11 39.22Q11.95 37.90 13.95 37.02L13.95 37.02Q16.75 35.82 19.63 34.90Q22.51 33.98 25.15 33.02Q27.79 32.06 30.11 30.86Q32.43 29.66 34.11 27.90L34.11 27.90Q34.35 27.90 34.35 27.90L34.35 27.90Q34.51 27.90 34.43 28.06Q34.35 28.22 34.35 28.38ZM35.87 58.70L35.87 58.70Q35.87 58.86 35.79 58.98Q35.71 59.10 35.63 59.26L35.63 59.26L35.39 59.50Q34.43 60.38 33.71 60.86Q32.99 61.34 31.39 61.58L31.39 61.58Q30.75 61.66 29.95 61.66Q29.15 61.66 28.47 61.54Q27.79 61.42 27.31 61.22Q26.83 61.02 26.99 60.78L26.99 60.78Q27.07 60.62 27.83 60.50Q28.59 60.38 28.83 60.38L28.83 60.38Q29.71 60.22 30.47 60.14Q31.23 60.06 31.87 59.90L31.87 59.90Q32.91 59.66 33.71 59.42Q34.51 59.18 35.55 58.70L35.55 58.70Q35.87 58.54 35.87 58.70ZM31.47 58.94L31.47 58.94Q31.47 59.02 31.15 58.98Q30.83 58.94 30.59 58.94L30.59 58.94Q27.23 58.30 24.11 56.78Q20.99 55.26 17.95 53.34L17.95 53.34Q17.71 53.18 16.91 52.58Q16.11 51.98 14.83 51.38Q13.55 50.78 11.83 50.34Q10.11 49.90 8.11 49.98L8.11 49.98L8.67 49.42Q11.47 46.62 15.35 45.14Q19.23 43.66 23.23 42.30L23.23 42.30Q25.71 41.42 28.23 40.38Q30.75 39.34 32.99 37.42L32.99 37.42Q33.15 37.10 33.31 37.26L33.31 37.26Q33.47 37.42 33.39 37.54Q33.31 37.66 33.15 37.90L33.15 37.90Q32.67 39.58 30.87 41.02Q29.07 42.46 26.87 43.58Q24.67 44.70 22.43 45.58Q20.19 46.46 18.83 47.02L18.83 47.02Q17.71 47.50 16.39 47.98Q15.07 48.46 13.71 48.86L13.71 48.86Q15.07 49.18 16.47 49.74Q17.87 50.30 19.19 50.98Q20.51 51.66 21.63 52.30Q22.75 52.94 23.55 53.34L23.55 53.34Q25.47 54.38 27.43 55.78Q29.39 57.18 30.99 58.30L30.99 58.30Q31.55 58.62 31.47 58.94ZM9.95 45.26L9.95 45.26Q10.11 45.26 9.99 45.54Q9.87 45.82 9.67 46.10Q9.47 46.38 9.23 46.66Q8.99 46.94 8.99 47.02L8.99 47.02Q8.43 47.82 7.87 48.46Q7.31 49.10 6.91 49.74L6.91 49.74L6.59 50.30L4.75 50.94Q4.83 50.46 5.03 49.82Q5.23 49.18 5.79 48.38L5.79 48.38Q6.19 47.82 6.87 47.14Q7.55 46.46 8.19 45.94Q8.83 45.42 9.35 45.18Q9.87 44.94 9.95 45.26ZM34.99 61.34L34.99 61.34Q32.83 63.34 30.67 64.22Q28.51 65.10 26.51 65.22Q24.51 65.34 22.63 64.82Q20.75 64.30 19.07 63.42L19.07 63.42Q16.75 62.22 14.63 60.78Q12.51 59.34 10.43 58.06Q8.35 56.78 6.31 55.90Q4.27 55.02 2.11 55.02L2.11 55.02Q1.47 55.02 1.79 54.78Q2.11 54.54 2.19 54.54L2.19 54.54Q4.75 53.58 7.11 54.14Q9.47 54.70 11.75 55.94Q14.03 57.18 16.23 58.74Q18.43 60.30 20.75 61.50L20.75 61.50Q22.19 62.22 23.87 62.74Q25.55 63.26 27.39 63.30Q29.23 63.34 31.07 62.86Q32.91 62.38 34.75 61.10L34.75 61.10Q35.23 60.78 35.15 61.02Q35.07 61.26 34.99 61.34ZM22.67 59.18L22.67 59.18Q22.51 59.42 22.11 59.38Q21.71 59.34 21.63 59.18L21.63 59.18Q20.43 59.02 18.67 58.22Q16.91 57.42 15.87 56.62L15.87 56.62Q15.55 56.38 14.03 55.66Q12.51 54.94 10.63 54.26Q8.75 53.58 6.87 53.14Q4.99 52.70 4.03 53.02L4.03 53.02Q3.71 53.18 3.71 52.94L3.71 52.94Q3.87 52.78 3.95 52.70Q4.03 52.62 4.19 52.46L4.19 52.46Q5.23 51.66 6.47 51.30Q7.71 50.94 8.99 50.90Q10.27 50.86 11.43 51.10Q12.59 51.34 13.39 51.82L13.39 51.82Q15.63 53.10 17.91 54.78Q20.19 56.46 22.03 58.30L22.03 58.30Q22.19 58.38 22.51 58.70Q22.83 59.02 22.67 59.18ZM55.95 38.46L55.95 38.46Q54.27 43.02 52.03 47.82Q49.79 52.62 47.39 56.78L47.39 56.78Q47.23 56.94 46.87 57.54Q46.51 58.14 46.27 58.14L46.27 58.14Q46.19 57.98 46.27 57.26Q46.35 56.54 46.51 56.30L46.51 56.30Q46.75 55.26 47.23 53.78Q47.71 52.30 48.23 50.74Q48.75 49.18 49.27 47.74Q49.79 46.30 50.19 45.26L50.19 45.26Q50.35 44.78 50.91 43.18Q51.47 41.58 52.19 39.38Q52.91 37.18 53.67 34.66Q54.43 32.14 55.03 29.78Q55.63 27.42 55.99 25.46Q56.35 23.50 56.27 22.46L56.27 22.46L56.27 21.90Q56.27 21.74 56.35 21.66L56.35 21.66Q56.51 21.66 56.67 21.90Q56.83 22.14 56.83 22.22L56.83 22.22Q57.55 23.74 57.71 25.86Q57.87 27.98 57.67 30.26Q57.47 32.54 56.99 34.70Q56.51 36.86 55.95 38.46ZM52.75 57.26L52.75 57.26Q52.03 59.34 51.11 61.42Q50.19 63.50 49.23 65.54Q48.27 67.58 47.35 69.42Q46.43 71.26 45.63 72.78L45.63 72.78Q45.39 72.86 45.19 72.86Q44.99 72.86 44.83 72.86L44.83 72.86Q44.59 72.86 44.71 72.82Q44.83 72.78 44.83 72.46L44.83 72.46Q46.43 65.98 48.75 59.78Q51.07 53.58 53.71 47.34L53.71 47.34Q55.39 43.34 56.87 39.22Q58.35 35.10 59.23 30.30L59.23 30.30Q59.23 29.90 59.39 29.90L59.39 29.90Q59.47 29.90 59.63 30.54L59.63 30.54Q60.19 32.86 59.51 36.50Q58.83 40.14 57.59 44.02Q56.35 47.90 54.95 51.46Q53.55 55.02 52.75 57.26ZM41.55 79.66L41.55 79.66Q41.55 79.90 41.63 80.14Q41.71 80.38 41.55 80.22L41.55 80.22Q41.23 80.22 41.23 79.98L41.23 79.98Q39.63 77.10 39.15 73.86Q38.67 70.62 38.95 67.22Q39.23 63.82 40.11 60.38Q40.99 56.94 42.19 53.66L42.19 53.66Q43.87 49.02 45.79 44.58Q47.71 40.14 49.47 35.86Q51.23 31.58 52.55 27.58Q53.87 23.58 54.35 19.74L54.35 19.74Q54.35 19.58 54.39 19.42Q54.43 19.26 54.59 19.26L54.59 19.26Q54.75 19.18 54.75 19.46Q54.75 19.74 54.91 19.82L54.91 19.82Q55.39 24.06 54.43 28.42Q53.47 32.78 51.75 37.30Q50.03 41.82 47.95 46.38Q45.87 50.94 44.19 55.58L44.19 55.58Q43.15 58.46 42.31 61.58Q41.47 64.70 41.03 67.86Q40.59 71.02 40.67 74.06Q40.75 77.10 41.55 79.66ZM43.39 73.98L43.39 73.98Q43.31 75.58 43.51 77.06Q43.71 78.54 43.95 80.14L43.95 80.14Q43.95 80.22 43.95 80.54Q43.95 80.86 43.79 80.70L43.79 80.70Q43.39 80.54 43.31 80.38L43.31 80.38Q43.23 80.30 43.23 80.14L43.23 80.14Q42.35 78.86 41.99 77.62Q41.63 76.38 41.71 73.74L41.71 73.74Q41.71 73.10 41.95 71.82Q42.19 70.54 42.47 69.30Q42.75 68.06 43.11 67.18Q43.47 66.30 43.79 66.38L43.79 66.38Q43.87 66.38 43.91 66.82Q43.95 67.26 43.91 67.82Q43.87 68.38 43.83 68.90Q43.79 69.42 43.79 69.66L43.79 69.66Q43.63 71.10 43.51 72.10Q43.39 73.10 43.39 73.98ZM94.99 47.58L94.99 47.58Q94.91 47.74 94.59 47.66Q94.27 47.58 94.03 47.42L94.03 47.42Q90.27 46.06 87.07 43.58Q83.87 41.10 80.75 38.22L80.75 38.22Q78.91 36.46 76.79 34.78Q74.67 33.10 71.87 31.98L71.87 31.98Q71.71 31.98 71.71 31.90L71.71 31.90Q71.79 31.66 72.11 31.58L72.11 31.58Q73.87 31.26 76.03 32.18Q78.19 33.10 80.23 34.46Q82.27 35.82 84.11 37.34Q85.95 38.86 87.15 39.74L87.15 39.74Q89.15 41.34 91.19 43.30Q93.23 45.26 94.59 46.78L94.59 46.78Q94.75 47.02 94.95 47.22Q95.15 47.42 94.99 47.58ZM98.19 51.02L98.19 51.02Q97.87 52.38 97.03 53.58Q96.19 54.78 95.15 55.78Q94.11 56.78 92.91 57.46Q91.71 58.14 90.67 58.38L90.67 58.38Q87.87 59.42 84.51 60.02Q81.15 60.62 78.27 60.62L78.27 60.62Q77.87 60.70 77.51 60.70Q77.15 60.70 77.07 60.62L77.07 60.62Q76.91 60.30 77.27 60.06Q77.63 59.82 77.79 59.82L77.79 59.82Q78.35 59.50 79.23 59.10Q80.11 58.70 81.07 58.30Q82.03 57.90 82.99 57.58Q83.95 57.26 84.59 57.10L84.59 57.10Q85.15 56.94 87.03 56.26Q88.91 55.58 91.11 54.70Q93.31 53.82 95.23 52.74Q97.15 51.66 97.79 50.62L97.79 50.62Q98.03 50.22 98.19 50.30Q98.35 50.38 98.19 51.02ZM85.15 45.50L85.15 45.50Q84.99 45.66 84.63 45.54Q84.27 45.42 84.19 45.26L84.19 45.26Q82.91 44.62 81.07 43.42Q79.23 42.22 78.27 41.18L78.27 41.18Q77.87 40.86 76.23 39.70Q74.59 38.54 72.59 37.30Q70.59 36.06 68.63 35.06Q66.67 34.06 65.63 34.06L65.63 34.06Q65.47 34.22 65.27 34.10Q65.07 33.98 65.07 33.82L65.07 33.82L65.79 33.50Q66.99 32.94 68.43 32.94Q69.87 32.94 71.27 33.30Q72.67 33.66 73.91 34.26Q75.15 34.86 75.95 35.58L75.95 35.58Q78.11 37.42 80.47 39.78Q82.83 42.14 84.75 44.46L84.75 44.46Q84.91 44.62 85.11 44.98Q85.31 45.34 85.15 45.50ZM98.11 48.06L98.11 48.06Q96.59 50.70 94.15 52.10Q91.71 53.50 88.83 54.34Q85.95 55.18 82.83 55.82Q79.71 56.46 76.83 57.42L76.83 57.42Q75.07 57.98 73.31 58.98Q71.55 59.98 69.95 61.38Q68.35 62.78 67.07 64.54Q65.79 66.30 65.07 68.46L65.07 68.46Q64.91 68.94 64.91 68.94L64.91 68.94Q64.75 68.94 64.75 68.78Q64.75 68.62 64.75 68.46L64.75 68.46Q65.15 65.50 66.27 63.26Q67.39 61.02 68.99 59.38Q70.59 57.74 72.63 56.62Q74.67 55.50 76.83 54.78L76.83 54.78Q79.31 53.90 81.87 53.38Q84.43 52.86 86.91 52.22L86.91 52.22Q85.15 51.74 83.71 50.86Q82.27 49.98 80.75 48.86L80.75 48.86Q78.35 47.02 76.15 45.02Q73.95 43.02 71.83 41.18Q69.71 39.34 67.59 37.86Q65.47 36.38 63.15 35.58L63.15 35.58L62.99 35.58Q62.83 35.58 62.91 35.50L62.91 35.50Q62.83 35.34 63.07 35.30Q63.31 35.26 63.47 35.26L63.47 35.26Q66.35 35.02 68.83 36.18Q71.31 37.34 73.59 39.18Q75.87 41.02 78.11 43.18Q80.35 45.34 82.75 47.18L82.75 47.18Q83.95 48.06 85.27 48.90Q86.59 49.74 87.95 50.26Q89.31 50.78 90.79 50.86Q92.27 50.94 93.71 50.30L93.71 50.30Q92.99 50.22 92.23 49.98Q91.47 49.74 90.83 49.46Q90.19 49.18 89.83 48.86Q89.47 48.54 89.63 48.30L89.63 48.30Q89.79 48.06 90.79 48.18Q91.79 48.30 92.19 48.30L92.19 48.30Q93.63 48.54 95.03 48.58Q96.43 48.62 97.55 47.98L97.55 47.98Q97.71 47.82 98.11 47.66Q98.51 47.50 98.11 48.06ZM96.19 56.94L96.19 56.94Q96.19 57.02 96.15 57.10Q96.11 57.18 96.11 57.26L96.11 57.26Q96.03 57.42 96.03 57.50L96.03 57.50Q95.31 59.26 93.31 60.50Q91.31 61.74 88.95 62.62Q86.59 63.50 84.31 64.10Q82.03 64.70 80.67 65.18L80.67 65.18Q78.19 66.06 75.39 66.58Q72.59 67.10 70.51 67.58L70.51 67.58Q69.71 67.58 69.47 67.50L69.47 67.50Q69.47 67.26 69.75 67.06Q70.03 66.86 70.27 66.70L70.27 66.70Q73.63 64.38 77.51 63.22Q81.39 62.06 85.47 61.02L85.47 61.02Q88.03 60.38 90.67 59.54Q93.31 58.70 95.87 56.94L95.87 56.94Q96.19 56.86 96.19 56.94ZM72.03 62.54L72.03 62.54Q72.11 62.70 71.95 63.02Q71.79 63.34 71.55 63.62Q71.31 63.90 71.07 64.14Q70.83 64.38 70.83 64.46L70.83 64.46Q70.03 65.10 69.47 65.70Q68.91 66.30 68.35 66.94L68.35 66.94Q67.79 67.82 67.31 68.66Q66.83 69.50 66.27 70.14L66.27 70.14Q66.27 70.30 66.11 70.38Q65.95 70.46 66.11 70.30L66.11 70.30Q65.95 70.14 65.95 69.74L65.95 69.74L65.95 69.50Q65.95 68.62 66.19 67.70Q66.43 66.78 67.55 65.42L67.55 65.42Q67.95 64.94 68.67 64.34Q69.39 63.74 70.11 63.26Q70.83 62.78 71.35 62.54Q71.87 62.30 72.03 62.54Z"></path></svg><style>@media (prefers-color-scheme: light) { :root { filter: none; } }
</style></svg>